<mxfile host="app.diagrams.net" agent="Mozilla/5.0 (Windows NT 10.0; Win64; x64; rv:132.0) Gecko/20100101 Firefox/132.0" version="24.8.3">
  <diagram name="Page-1" id="m-oawZGtdrjUk9GfNGgd">
    <mxGraphModel dx="1509" dy="863" grid="1" gridSize="10" guides="1" tooltips="1" connect="1" arrows="1" fold="1" page="1" pageScale="1" pageWidth="850" pageHeight="1100" math="0" shadow="0">
      <root>
        <mxCell id="0" />
        <mxCell id="1" parent="0" />
        <mxCell id="FcyOMDtDkG1V1DhUgrPw-74" value="" style="rounded=0;whiteSpace=wrap;html=1;fillColor=none;dashed=1;strokeColor=#ffffff;fontColor=#ffffff;" vertex="1" parent="1">
          <mxGeometry x="40" y="600" width="740" height="1100" as="geometry" />
        </mxCell>
        <mxCell id="FcyOMDtDkG1V1DhUgrPw-3" style="edgeStyle=orthogonalEdgeStyle;rounded=0;orthogonalLoop=1;jettySize=auto;html=1;entryX=0.5;entryY=0;entryDx=0;entryDy=0;strokeColor=#ffffff;fontColor=#ffffff;" edge="1" parent="1" source="FcyOMDtDkG1V1DhUgrPw-1" target="FcyOMDtDkG1V1DhUgrPw-2">
          <mxGeometry relative="1" as="geometry" />
        </mxCell>
        <mxCell id="FcyOMDtDkG1V1DhUgrPw-1" value="&lt;div&gt;Define&lt;/div&gt;&lt;div&gt;Test Criteria&lt;/div&gt;&lt;div&gt;Objectives&lt;/div&gt;&lt;div&gt;Philosophy &lt;br&gt;&lt;/div&gt;" style="shape=hexagon;perimeter=hexagonPerimeter2;whiteSpace=wrap;html=1;fixedSize=1;fillColor=none;strokeColor=#ffffff;fontColor=#ffffff;" vertex="1" parent="1">
          <mxGeometry x="350" y="160" width="120" height="80" as="geometry" />
        </mxCell>
        <mxCell id="FcyOMDtDkG1V1DhUgrPw-8" style="edgeStyle=orthogonalEdgeStyle;rounded=0;orthogonalLoop=1;jettySize=auto;html=1;entryX=0.5;entryY=0;entryDx=0;entryDy=0;strokeColor=#ffffff;fontColor=#ffffff;" edge="1" parent="1" source="FcyOMDtDkG1V1DhUgrPw-2" target="FcyOMDtDkG1V1DhUgrPw-6">
          <mxGeometry relative="1" as="geometry" />
        </mxCell>
        <mxCell id="FcyOMDtDkG1V1DhUgrPw-9" style="edgeStyle=orthogonalEdgeStyle;rounded=0;orthogonalLoop=1;jettySize=auto;html=1;exitX=0.5;exitY=1;exitDx=0;exitDy=0;entryX=0.5;entryY=0;entryDx=0;entryDy=0;strokeColor=#ffffff;fontColor=#ffffff;" edge="1" parent="1" source="FcyOMDtDkG1V1DhUgrPw-2" target="FcyOMDtDkG1V1DhUgrPw-7">
          <mxGeometry relative="1" as="geometry" />
        </mxCell>
        <mxCell id="FcyOMDtDkG1V1DhUgrPw-2" value="Research Phase" style="rounded=0;whiteSpace=wrap;html=1;fillColor=none;strokeColor=#ffffff;fontColor=#ffffff;" vertex="1" parent="1">
          <mxGeometry x="350" y="270" width="120" height="60" as="geometry" />
        </mxCell>
        <mxCell id="FcyOMDtDkG1V1DhUgrPw-11" style="edgeStyle=orthogonalEdgeStyle;rounded=0;orthogonalLoop=1;jettySize=auto;html=1;strokeColor=#ffffff;fontColor=#ffffff;" edge="1" parent="1" source="FcyOMDtDkG1V1DhUgrPw-6" target="FcyOMDtDkG1V1DhUgrPw-10">
          <mxGeometry relative="1" as="geometry" />
        </mxCell>
        <mxCell id="FcyOMDtDkG1V1DhUgrPw-6" value="&lt;div&gt;Evaluate Existing &lt;br&gt;&lt;/div&gt;&lt;div&gt;Solutions&lt;br&gt;&lt;/div&gt;" style="shape=parallelogram;perimeter=parallelogramPerimeter;whiteSpace=wrap;html=1;fixedSize=1;fillColor=none;strokeColor=#ffffff;fontColor=#ffffff;" vertex="1" parent="1">
          <mxGeometry x="210" y="370" width="140" height="60" as="geometry" />
        </mxCell>
        <mxCell id="FcyOMDtDkG1V1DhUgrPw-12" style="edgeStyle=orthogonalEdgeStyle;rounded=0;orthogonalLoop=1;jettySize=auto;html=1;entryX=0.5;entryY=0;entryDx=0;entryDy=0;strokeColor=#ffffff;fontColor=#ffffff;" edge="1" parent="1" source="FcyOMDtDkG1V1DhUgrPw-7" target="FcyOMDtDkG1V1DhUgrPw-10">
          <mxGeometry relative="1" as="geometry" />
        </mxCell>
        <mxCell id="FcyOMDtDkG1V1DhUgrPw-7" value="&lt;div&gt;Evaluate Existing Sub&lt;/div&gt;&lt;div&gt;Solutions&lt;br&gt;&lt;/div&gt;" style="shape=parallelogram;perimeter=parallelogramPerimeter;whiteSpace=wrap;html=1;fixedSize=1;fillColor=none;strokeColor=#ffffff;fontColor=#ffffff;" vertex="1" parent="1">
          <mxGeometry x="460" y="370" width="150" height="60" as="geometry" />
        </mxCell>
        <mxCell id="FcyOMDtDkG1V1DhUgrPw-14" style="edgeStyle=orthogonalEdgeStyle;rounded=0;orthogonalLoop=1;jettySize=auto;html=1;exitX=0;exitY=0.5;exitDx=0;exitDy=0;entryX=0;entryY=0.5;entryDx=0;entryDy=0;strokeColor=#ffffff;fontColor=#ffffff;" edge="1" parent="1" source="FcyOMDtDkG1V1DhUgrPw-10" target="FcyOMDtDkG1V1DhUgrPw-2">
          <mxGeometry relative="1" as="geometry">
            <mxPoint x="180" y="310" as="targetPoint" />
            <Array as="points">
              <mxPoint x="170" y="530" />
              <mxPoint x="170" y="300" />
            </Array>
          </mxGeometry>
        </mxCell>
        <mxCell id="FcyOMDtDkG1V1DhUgrPw-17" style="edgeStyle=orthogonalEdgeStyle;rounded=0;orthogonalLoop=1;jettySize=auto;html=1;strokeColor=#ffffff;fontColor=#ffffff;" edge="1" parent="1" source="FcyOMDtDkG1V1DhUgrPw-10" target="FcyOMDtDkG1V1DhUgrPw-16">
          <mxGeometry relative="1" as="geometry" />
        </mxCell>
        <mxCell id="FcyOMDtDkG1V1DhUgrPw-10" value="Satisfies Test Criteria?" style="rhombus;whiteSpace=wrap;html=1;fillColor=none;strokeColor=#ffffff;fontColor=#ffffff;" vertex="1" parent="1">
          <mxGeometry x="350" y="480" width="110" height="100" as="geometry" />
        </mxCell>
        <mxCell id="FcyOMDtDkG1V1DhUgrPw-13" value="No" style="text;html=1;align=center;verticalAlign=middle;resizable=0;points=[];autosize=1;strokeColor=none;fillColor=none;fontColor=#ffffff;" vertex="1" parent="1">
          <mxGeometry x="340" y="488" width="40" height="30" as="geometry" />
        </mxCell>
        <mxCell id="FcyOMDtDkG1V1DhUgrPw-15" value="Yes" style="text;html=1;align=center;verticalAlign=middle;resizable=0;points=[];autosize=1;strokeColor=none;fillColor=none;fontColor=#ffffff;" vertex="1" parent="1">
          <mxGeometry x="420" y="560" width="40" height="30" as="geometry" />
        </mxCell>
        <mxCell id="FcyOMDtDkG1V1DhUgrPw-20" style="edgeStyle=orthogonalEdgeStyle;rounded=0;orthogonalLoop=1;jettySize=auto;html=1;entryX=0.5;entryY=0;entryDx=0;entryDy=0;strokeColor=#ffffff;fontColor=#ffffff;" edge="1" parent="1" source="FcyOMDtDkG1V1DhUgrPw-16" target="FcyOMDtDkG1V1DhUgrPw-19">
          <mxGeometry relative="1" as="geometry" />
        </mxCell>
        <mxCell id="FcyOMDtDkG1V1DhUgrPw-16" value="Rapid Prototyping of Hardware/Software Solution" style="rounded=0;whiteSpace=wrap;html=1;fillColor=none;strokeColor=#ffffff;fontColor=#ffffff;" vertex="1" parent="1">
          <mxGeometry x="345" y="640" width="120" height="60" as="geometry" />
        </mxCell>
        <mxCell id="FcyOMDtDkG1V1DhUgrPw-23" style="edgeStyle=orthogonalEdgeStyle;rounded=0;orthogonalLoop=1;jettySize=auto;html=1;entryX=0.5;entryY=0;entryDx=0;entryDy=0;strokeColor=#ffffff;fontColor=#ffffff;" edge="1" parent="1" source="FcyOMDtDkG1V1DhUgrPw-19" target="FcyOMDtDkG1V1DhUgrPw-22">
          <mxGeometry relative="1" as="geometry" />
        </mxCell>
        <mxCell id="FcyOMDtDkG1V1DhUgrPw-19" value="Create Multiple Iterations" style="rounded=0;whiteSpace=wrap;html=1;fillColor=none;strokeColor=#ffffff;fontColor=#ffffff;" vertex="1" parent="1">
          <mxGeometry x="345" y="740" width="120" height="60" as="geometry" />
        </mxCell>
        <mxCell id="FcyOMDtDkG1V1DhUgrPw-21" value="Solution Agnostic" style="text;html=1;align=center;verticalAlign=middle;resizable=0;points=[];autosize=1;strokeColor=none;fillColor=none;fontColor=#ffffff;" vertex="1" parent="1">
          <mxGeometry x="460" y="748" width="120" height="30" as="geometry" />
        </mxCell>
        <mxCell id="FcyOMDtDkG1V1DhUgrPw-26" style="edgeStyle=orthogonalEdgeStyle;rounded=0;orthogonalLoop=1;jettySize=auto;html=1;exitX=0;exitY=0.5;exitDx=0;exitDy=0;entryX=0;entryY=0.5;entryDx=0;entryDy=0;strokeColor=#ffffff;fontColor=#ffffff;" edge="1" parent="1" source="FcyOMDtDkG1V1DhUgrPw-22" target="FcyOMDtDkG1V1DhUgrPw-16">
          <mxGeometry relative="1" as="geometry">
            <Array as="points">
              <mxPoint x="310" y="890" />
              <mxPoint x="310" y="670" />
            </Array>
          </mxGeometry>
        </mxCell>
        <mxCell id="FcyOMDtDkG1V1DhUgrPw-22" value="Satisfies Test Criteria?" style="rhombus;whiteSpace=wrap;html=1;fillColor=none;strokeColor=#ffffff;fontColor=#ffffff;" vertex="1" parent="1">
          <mxGeometry x="350" y="840" width="110" height="100" as="geometry" />
        </mxCell>
        <mxCell id="FcyOMDtDkG1V1DhUgrPw-24" value="No" style="text;html=1;align=center;verticalAlign=middle;resizable=0;points=[];autosize=1;strokeColor=none;fillColor=none;fontColor=#ffffff;" vertex="1" parent="1">
          <mxGeometry x="345" y="840" width="40" height="30" as="geometry" />
        </mxCell>
        <mxCell id="FcyOMDtDkG1V1DhUgrPw-25" value="Yes" style="text;html=1;align=center;verticalAlign=middle;resizable=0;points=[];autosize=1;strokeColor=none;fillColor=none;fontColor=#ffffff;" vertex="1" parent="1">
          <mxGeometry x="430" y="910" width="40" height="30" as="geometry" />
        </mxCell>
        <mxCell id="FcyOMDtDkG1V1DhUgrPw-28" style="edgeStyle=orthogonalEdgeStyle;rounded=0;orthogonalLoop=1;jettySize=auto;html=1;strokeColor=#ffffff;fontColor=#ffffff;" edge="1" parent="1" source="FcyOMDtDkG1V1DhUgrPw-22">
          <mxGeometry relative="1" as="geometry">
            <mxPoint x="404" y="980" as="targetPoint" />
          </mxGeometry>
        </mxCell>
        <mxCell id="FcyOMDtDkG1V1DhUgrPw-30" value="Software" style="whiteSpace=wrap;html=1;aspect=fixed;fillColor=none;strokeColor=#ffffff;fontColor=#ffffff;" vertex="1" parent="1">
          <mxGeometry x="135" y="1220" width="80" height="80" as="geometry" />
        </mxCell>
        <mxCell id="FcyOMDtDkG1V1DhUgrPw-63" style="edgeStyle=orthogonalEdgeStyle;rounded=0;orthogonalLoop=1;jettySize=auto;html=1;strokeColor=#ffffff;fontColor=#ffffff;" edge="1" parent="1" source="FcyOMDtDkG1V1DhUgrPw-31" target="FcyOMDtDkG1V1DhUgrPw-39">
          <mxGeometry relative="1" as="geometry" />
        </mxCell>
        <mxCell id="FcyOMDtDkG1V1DhUgrPw-31" value="Hardware" style="whiteSpace=wrap;html=1;aspect=fixed;fillColor=none;strokeColor=#ffffff;fontColor=#ffffff;" vertex="1" parent="1">
          <mxGeometry x="555" y="1220" width="80" height="80" as="geometry" />
        </mxCell>
        <mxCell id="FcyOMDtDkG1V1DhUgrPw-32" value="Firmware" style="whiteSpace=wrap;html=1;aspect=fixed;fillColor=none;strokeColor=#ffffff;fontColor=#ffffff;" vertex="1" parent="1">
          <mxGeometry x="225" y="1220" width="80" height="80" as="geometry" />
        </mxCell>
        <mxCell id="FcyOMDtDkG1V1DhUgrPw-64" style="edgeStyle=orthogonalEdgeStyle;rounded=0;orthogonalLoop=1;jettySize=auto;html=1;entryX=0.5;entryY=0;entryDx=0;entryDy=0;strokeColor=#ffffff;fontColor=#ffffff;" edge="1" parent="1" source="FcyOMDtDkG1V1DhUgrPw-34" target="FcyOMDtDkG1V1DhUgrPw-39">
          <mxGeometry relative="1" as="geometry" />
        </mxCell>
        <mxCell id="FcyOMDtDkG1V1DhUgrPw-34" value="Higher Order sub system implementation" style="rounded=0;whiteSpace=wrap;html=1;fillColor=none;strokeColor=#ffffff;fontColor=#ffffff;" vertex="1" parent="1">
          <mxGeometry x="655" y="1220" width="110" height="80" as="geometry" />
        </mxCell>
        <mxCell id="FcyOMDtDkG1V1DhUgrPw-65" style="edgeStyle=orthogonalEdgeStyle;rounded=0;orthogonalLoop=1;jettySize=auto;html=1;entryX=0.5;entryY=0;entryDx=0;entryDy=0;strokeColor=#ffffff;fontColor=#ffffff;" edge="1" parent="1" source="FcyOMDtDkG1V1DhUgrPw-35" target="FcyOMDtDkG1V1DhUgrPw-40">
          <mxGeometry relative="1" as="geometry">
            <Array as="points">
              <mxPoint x="225" y="1580" />
              <mxPoint x="395" y="1580" />
            </Array>
          </mxGeometry>
        </mxCell>
        <mxCell id="FcyOMDtDkG1V1DhUgrPw-35" value="Software Engineers for code review and optimization" style="rounded=1;whiteSpace=wrap;html=1;fillColor=none;strokeColor=#ffffff;fontColor=#ffffff;" vertex="1" parent="1">
          <mxGeometry x="135" y="1330" width="180" height="60" as="geometry" />
        </mxCell>
        <mxCell id="FcyOMDtDkG1V1DhUgrPw-61" style="edgeStyle=orthogonalEdgeStyle;rounded=0;orthogonalLoop=1;jettySize=auto;html=1;entryX=0.5;entryY=0;entryDx=0;entryDy=0;strokeColor=#ffffff;fontColor=#ffffff;" edge="1" parent="1" source="FcyOMDtDkG1V1DhUgrPw-36" target="FcyOMDtDkG1V1DhUgrPw-37">
          <mxGeometry relative="1" as="geometry">
            <Array as="points">
              <mxPoint x="450" y="1360" />
              <mxPoint x="335" y="1360" />
            </Array>
          </mxGeometry>
        </mxCell>
        <mxCell id="FcyOMDtDkG1V1DhUgrPw-62" style="edgeStyle=orthogonalEdgeStyle;rounded=0;orthogonalLoop=1;jettySize=auto;html=1;exitX=0.5;exitY=1;exitDx=0;exitDy=0;strokeColor=#ffffff;fontColor=#ffffff;" edge="1" parent="1" source="FcyOMDtDkG1V1DhUgrPw-36" target="FcyOMDtDkG1V1DhUgrPw-38">
          <mxGeometry relative="1" as="geometry">
            <Array as="points">
              <mxPoint x="450" y="1360" />
              <mxPoint x="560" y="1360" />
            </Array>
          </mxGeometry>
        </mxCell>
        <mxCell id="FcyOMDtDkG1V1DhUgrPw-36" value="Mechanical" style="whiteSpace=wrap;html=1;aspect=fixed;fillColor=none;strokeColor=#ffffff;fontColor=#ffffff;" vertex="1" parent="1">
          <mxGeometry x="410" y="1220" width="80" height="80" as="geometry" />
        </mxCell>
        <mxCell id="FcyOMDtDkG1V1DhUgrPw-66" style="edgeStyle=orthogonalEdgeStyle;rounded=0;orthogonalLoop=1;jettySize=auto;html=1;entryX=0.5;entryY=0;entryDx=0;entryDy=0;strokeColor=#ffffff;fontColor=#ffffff;" edge="1" parent="1" source="FcyOMDtDkG1V1DhUgrPw-37" target="FcyOMDtDkG1V1DhUgrPw-40">
          <mxGeometry relative="1" as="geometry" />
        </mxCell>
        <mxCell id="FcyOMDtDkG1V1DhUgrPw-37" value="Mechanical Engineers for structural or mechanical insights" style="rounded=1;whiteSpace=wrap;html=1;fillColor=none;strokeColor=#ffffff;fontColor=#ffffff;" vertex="1" parent="1">
          <mxGeometry x="245" y="1440" width="180" height="60" as="geometry" />
        </mxCell>
        <mxCell id="FcyOMDtDkG1V1DhUgrPw-67" style="edgeStyle=orthogonalEdgeStyle;rounded=0;orthogonalLoop=1;jettySize=auto;html=1;entryX=0.5;entryY=0;entryDx=0;entryDy=0;strokeColor=#ffffff;fontColor=#ffffff;" edge="1" parent="1" source="FcyOMDtDkG1V1DhUgrPw-38" target="FcyOMDtDkG1V1DhUgrPw-40">
          <mxGeometry relative="1" as="geometry" />
        </mxCell>
        <mxCell id="FcyOMDtDkG1V1DhUgrPw-38" value="Machinists for manufacturability considerations" style="rounded=1;whiteSpace=wrap;html=1;fillColor=none;strokeColor=#ffffff;fontColor=#ffffff;" vertex="1" parent="1">
          <mxGeometry x="460" y="1440" width="180" height="60" as="geometry" />
        </mxCell>
        <mxCell id="FcyOMDtDkG1V1DhUgrPw-68" style="edgeStyle=orthogonalEdgeStyle;rounded=0;orthogonalLoop=1;jettySize=auto;html=1;entryX=0.5;entryY=0;entryDx=0;entryDy=0;strokeColor=#ffffff;fontColor=#ffffff;" edge="1" parent="1" source="FcyOMDtDkG1V1DhUgrPw-39" target="FcyOMDtDkG1V1DhUgrPw-40">
          <mxGeometry relative="1" as="geometry">
            <Array as="points">
              <mxPoint x="675" y="1580" />
              <mxPoint x="395" y="1580" />
            </Array>
          </mxGeometry>
        </mxCell>
        <mxCell id="FcyOMDtDkG1V1DhUgrPw-39" value="R&amp;amp;D Engineers for implementation considerations" style="rounded=1;whiteSpace=wrap;html=1;fillColor=none;strokeColor=#ffffff;fontColor=#ffffff;" vertex="1" parent="1">
          <mxGeometry x="585" y="1340" width="180" height="60" as="geometry" />
        </mxCell>
        <mxCell id="FcyOMDtDkG1V1DhUgrPw-69" style="edgeStyle=orthogonalEdgeStyle;rounded=0;orthogonalLoop=1;jettySize=auto;html=1;entryX=0.5;entryY=0;entryDx=0;entryDy=0;strokeColor=#ffffff;fontColor=#ffffff;" edge="1" parent="1" source="FcyOMDtDkG1V1DhUgrPw-40" target="FcyOMDtDkG1V1DhUgrPw-46">
          <mxGeometry relative="1" as="geometry" />
        </mxCell>
        <mxCell id="FcyOMDtDkG1V1DhUgrPw-40" value="Incorporate feedback and redundancies to improve design and mitigate risk" style="shape=parallelogram;perimeter=parallelogramPerimeter;whiteSpace=wrap;html=1;fixedSize=1;fillColor=none;strokeColor=#ffffff;fontColor=#ffffff;" vertex="1" parent="1">
          <mxGeometry x="295" y="1610" width="200" height="60" as="geometry" />
        </mxCell>
        <mxCell id="FcyOMDtDkG1V1DhUgrPw-48" style="edgeStyle=orthogonalEdgeStyle;rounded=0;orthogonalLoop=1;jettySize=auto;html=1;exitX=1;exitY=0.5;exitDx=0;exitDy=0;entryX=1;entryY=0.5;entryDx=0;entryDy=0;strokeColor=#ffffff;fontColor=#ffffff;" edge="1" parent="1" source="FcyOMDtDkG1V1DhUgrPw-41" target="FcyOMDtDkG1V1DhUgrPw-16">
          <mxGeometry relative="1" as="geometry">
            <Array as="points">
              <mxPoint x="600" y="1020" />
              <mxPoint x="600" y="670" />
            </Array>
          </mxGeometry>
        </mxCell>
        <mxCell id="FcyOMDtDkG1V1DhUgrPw-41" value="Validation" style="rhombus;whiteSpace=wrap;html=1;fillColor=none;strokeColor=#ffffff;fontColor=#ffffff;" vertex="1" parent="1">
          <mxGeometry x="365" y="980" width="80" height="80" as="geometry" />
        </mxCell>
        <mxCell id="FcyOMDtDkG1V1DhUgrPw-54" style="edgeStyle=orthogonalEdgeStyle;rounded=0;orthogonalLoop=1;jettySize=auto;html=1;exitX=0.5;exitY=1;exitDx=0;exitDy=0;entryX=0.5;entryY=0;entryDx=0;entryDy=0;strokeColor=#ffffff;fontColor=#ffffff;" edge="1" parent="1" source="FcyOMDtDkG1V1DhUgrPw-42" target="FcyOMDtDkG1V1DhUgrPw-30">
          <mxGeometry relative="1" as="geometry" />
        </mxCell>
        <mxCell id="FcyOMDtDkG1V1DhUgrPw-55" style="edgeStyle=orthogonalEdgeStyle;rounded=0;orthogonalLoop=1;jettySize=auto;html=1;exitX=0.5;exitY=1;exitDx=0;exitDy=0;entryX=0.5;entryY=0;entryDx=0;entryDy=0;strokeColor=#ffffff;fontColor=#ffffff;" edge="1" parent="1" source="FcyOMDtDkG1V1DhUgrPw-42" target="FcyOMDtDkG1V1DhUgrPw-32">
          <mxGeometry relative="1" as="geometry" />
        </mxCell>
        <mxCell id="FcyOMDtDkG1V1DhUgrPw-56" style="edgeStyle=orthogonalEdgeStyle;rounded=0;orthogonalLoop=1;jettySize=auto;html=1;entryX=0.5;entryY=0;entryDx=0;entryDy=0;strokeColor=#ffffff;fontColor=#ffffff;" edge="1" parent="1" source="FcyOMDtDkG1V1DhUgrPw-42" target="FcyOMDtDkG1V1DhUgrPw-36">
          <mxGeometry relative="1" as="geometry" />
        </mxCell>
        <mxCell id="FcyOMDtDkG1V1DhUgrPw-57" style="edgeStyle=orthogonalEdgeStyle;rounded=0;orthogonalLoop=1;jettySize=auto;html=1;exitX=0.5;exitY=1;exitDx=0;exitDy=0;entryX=0.5;entryY=0;entryDx=0;entryDy=0;strokeColor=#ffffff;fontColor=#ffffff;" edge="1" parent="1" source="FcyOMDtDkG1V1DhUgrPw-42" target="FcyOMDtDkG1V1DhUgrPw-31">
          <mxGeometry relative="1" as="geometry" />
        </mxCell>
        <mxCell id="FcyOMDtDkG1V1DhUgrPw-58" style="edgeStyle=orthogonalEdgeStyle;rounded=0;orthogonalLoop=1;jettySize=auto;html=1;exitX=0.5;exitY=1;exitDx=0;exitDy=0;entryX=0.5;entryY=0;entryDx=0;entryDy=0;strokeColor=#ffffff;fontColor=#ffffff;" edge="1" parent="1" source="FcyOMDtDkG1V1DhUgrPw-42" target="FcyOMDtDkG1V1DhUgrPw-34">
          <mxGeometry relative="1" as="geometry" />
        </mxCell>
        <mxCell id="FcyOMDtDkG1V1DhUgrPw-42" value="Document Implementation" style="shape=parallelogram;perimeter=parallelogramPerimeter;whiteSpace=wrap;html=1;fixedSize=1;fillColor=none;strokeColor=#ffffff;fontColor=#ffffff;" vertex="1" parent="1">
          <mxGeometry x="340" y="1090" width="120" height="60" as="geometry" />
        </mxCell>
        <mxCell id="FcyOMDtDkG1V1DhUgrPw-43" style="edgeStyle=orthogonalEdgeStyle;rounded=0;orthogonalLoop=1;jettySize=auto;html=1;entryX=0.542;entryY=0.048;entryDx=0;entryDy=0;entryPerimeter=0;strokeColor=#ffffff;fontColor=#ffffff;" edge="1" parent="1" source="FcyOMDtDkG1V1DhUgrPw-41" target="FcyOMDtDkG1V1DhUgrPw-42">
          <mxGeometry relative="1" as="geometry" />
        </mxCell>
        <mxCell id="FcyOMDtDkG1V1DhUgrPw-70" style="edgeStyle=orthogonalEdgeStyle;rounded=0;orthogonalLoop=1;jettySize=auto;html=1;entryX=0.5;entryY=0;entryDx=0;entryDy=0;strokeColor=#ffffff;fontColor=#ffffff;" edge="1" parent="1" source="FcyOMDtDkG1V1DhUgrPw-46" target="FcyOMDtDkG1V1DhUgrPw-52">
          <mxGeometry relative="1" as="geometry" />
        </mxCell>
        <mxCell id="FcyOMDtDkG1V1DhUgrPw-46" value="Validation and Verification Step" style="rhombus;whiteSpace=wrap;html=1;fillColor=none;strokeColor=#ffffff;fontColor=#ffffff;" vertex="1" parent="1">
          <mxGeometry x="330" y="1710" width="130" height="110" as="geometry" />
        </mxCell>
        <mxCell id="FcyOMDtDkG1V1DhUgrPw-49" value="No" style="text;html=1;align=center;verticalAlign=middle;resizable=0;points=[];autosize=1;strokeColor=none;fillColor=none;fontColor=#ffffff;" vertex="1" parent="1">
          <mxGeometry x="445" y="990" width="40" height="30" as="geometry" />
        </mxCell>
        <mxCell id="FcyOMDtDkG1V1DhUgrPw-50" value="Yes" style="text;html=1;align=center;verticalAlign=middle;resizable=0;points=[];autosize=1;strokeColor=none;fillColor=none;fontColor=#ffffff;" vertex="1" parent="1">
          <mxGeometry x="405" y="1060" width="40" height="30" as="geometry" />
        </mxCell>
        <mxCell id="FcyOMDtDkG1V1DhUgrPw-51" value="Deploy And Share With Neighbor Labs" style="rhombus;whiteSpace=wrap;html=1;fillColor=none;strokeColor=#ffffff;fontColor=#ffffff;" vertex="1" parent="1">
          <mxGeometry x="250" y="1980" width="290" height="110" as="geometry" />
        </mxCell>
        <mxCell id="FcyOMDtDkG1V1DhUgrPw-71" style="edgeStyle=orthogonalEdgeStyle;rounded=0;orthogonalLoop=1;jettySize=auto;html=1;entryX=0.5;entryY=0;entryDx=0;entryDy=0;strokeColor=#ffffff;fontColor=#ffffff;" edge="1" parent="1" source="FcyOMDtDkG1V1DhUgrPw-52" target="FcyOMDtDkG1V1DhUgrPw-51">
          <mxGeometry relative="1" as="geometry" />
        </mxCell>
        <mxCell id="FcyOMDtDkG1V1DhUgrPw-52" value="Document Implemenation" style="rhombus;whiteSpace=wrap;html=1;fillColor=none;strokeColor=#ffffff;fontColor=#ffffff;" vertex="1" parent="1">
          <mxGeometry x="330" y="1840" width="130" height="110" as="geometry" />
        </mxCell>
        <mxCell id="FcyOMDtDkG1V1DhUgrPw-59" style="edgeStyle=orthogonalEdgeStyle;rounded=0;orthogonalLoop=1;jettySize=auto;html=1;entryX=0.219;entryY=0.021;entryDx=0;entryDy=0;entryPerimeter=0;strokeColor=#ffffff;fontColor=#ffffff;" edge="1" parent="1" source="FcyOMDtDkG1V1DhUgrPw-30" target="FcyOMDtDkG1V1DhUgrPw-35">
          <mxGeometry relative="1" as="geometry" />
        </mxCell>
        <mxCell id="FcyOMDtDkG1V1DhUgrPw-60" style="edgeStyle=orthogonalEdgeStyle;rounded=0;orthogonalLoop=1;jettySize=auto;html=1;entryX=0.721;entryY=-0.037;entryDx=0;entryDy=0;entryPerimeter=0;strokeColor=#ffffff;fontColor=#ffffff;" edge="1" parent="1" source="FcyOMDtDkG1V1DhUgrPw-32" target="FcyOMDtDkG1V1DhUgrPw-35">
          <mxGeometry relative="1" as="geometry" />
        </mxCell>
        <mxCell id="FcyOMDtDkG1V1DhUgrPw-76" value="Prototyping Phase" style="text;html=1;align=center;verticalAlign=middle;resizable=0;points=[];autosize=1;strokeColor=#ffffff;fillColor=none;fontColor=#ffffff;" vertex="1" parent="1">
          <mxGeometry x="40" y="600" width="120" height="30" as="geometry" />
        </mxCell>
        <mxCell id="FcyOMDtDkG1V1DhUgrPw-77" value="Lab Grade Submillimeter Open Source Work Flow By Asad Melibaev " style="rounded=0;whiteSpace=wrap;html=1;fillColor=none;strokeColor=#ffffff;fontColor=#ffffff;" vertex="1" parent="1">
          <mxGeometry x="40" y="90" width="740" height="60" as="geometry" />
        </mxCell>
      </root>
    </mxGraphModel>
  </diagram>
</mxfile>
